HIERARCHY
ROOT Hips
{
	OFFSET 0.000000 0.000000 0.000000
	CHANNELS 6 Xposition Yposition Zposition Zrotation Xrotation Yrotation
	JOINT Spine
	{
		OFFSET 0.000000 0.059888 0.006665
		CHANNELS 6 Xposition Yposition Zposition Zrotation Xrotation Yrotation
		JOINT Chest
		{
			OFFSET 0.000000 0.125681 -0.015911
			CHANNELS 6 Xposition Yposition Zposition Zrotation Xrotation Yrotation
			JOINT UpperChest
			{
				OFFSET 0.000000 0.122768 -0.001652
				CHANNELS 6 Xposition Yposition Zposition Zrotation Xrotation Yrotation
				JOINT Neck
				{
					OFFSET 0.000000 0.155865 0.008735
					CHANNELS 6 Xposition Yposition Zposition Zrotation Xrotation Yrotation
					JOINT Head
					{
						OFFSET 0.000000 0.095969 -0.000410
						CHANNELS 6 Xposition Yposition Zposition Zrotation Xrotation Yrotation
						JOINT LeftEye
						{
							OFFSET 0.015267 0.059218 0.021494
							CHANNELS 6 Xposition Yposition Zposition Zrotation Xrotation Yrotation
							End Site
							{
								OFFSET 0.015267 0.059218 0.021494
							}
						}
						JOINT RightEye
						{
							OFFSET -0.015267 0.059218 0.021494
							CHANNELS 6 Xposition Yposition Zposition Zrotation Xrotation Yrotation
							End Site
							{
								OFFSET -0.015267 0.059218 0.021494
							}
						}
					}
				}
				JOINT LeftShoulder
				{
					OFFSET 0.025383 0.124268 0.007699
					CHANNELS 6 Xposition Yposition Zposition Zrotation Xrotation Yrotation
					JOINT LeftUpperArm
					{
						OFFSET 0.136062 0.000000 0.000000
						CHANNELS 6 Xposition Yposition Zposition Zrotation Xrotation Yrotation
						JOINT LeftLowerArm
						{
							OFFSET 0.225446 0.000000 0.000000
							CHANNELS 6 Xposition Yposition Zposition Zrotation Xrotation Yrotation
							JOINT LeftHand
							{
								OFFSET 0.256325 0.000003 0.000015
								CHANNELS 6 Xposition Yposition Zposition Zrotation Xrotation Yrotation
								JOINT LeftIndexProximal
								{
									OFFSET 0.074229 0.008101 0.022282
									CHANNELS 6 Xposition Yposition Zposition Zrotation Xrotation Yrotation
									JOINT LeftIndexIntermediate
									{
										OFFSET 0.037712 0.000000 -0.000001
										CHANNELS 6 Xposition Yposition Zposition Zrotation Xrotation Yrotation
										JOINT LeftIndexDistal
										{
											OFFSET 0.023218 0.000022 0.000021
											CHANNELS 6 Xposition Yposition Zposition Zrotation Xrotation Yrotation
											End Site
											{
												OFFSET 0.023218 0.000022 0.000021
											}
										}
									}
								}
								JOINT LeftLittleProximal
								{
									OFFSET 0.069261 0.008101 -0.033073
									CHANNELS 6 Xposition Yposition Zposition Zrotation Xrotation Yrotation
									JOINT LeftLittleIntermediate
									{
										OFFSET 0.035643 0.000000 0.000000
										CHANNELS 6 Xposition Yposition Zposition Zrotation Xrotation Yrotation
										JOINT LeftLittleDistal
										{
											OFFSET 0.020542 0.000000 0.000000
											CHANNELS 6 Xposition Yposition Zposition Zrotation Xrotation Yrotation
											End Site
											{
												OFFSET 0.020542 0.000000 0.000000
											}
										}
									}
								}
								JOINT LeftMiddleProximal
								{
									OFFSET 0.075240 0.008101 0.002320
									CHANNELS 6 Xposition Yposition Zposition Zrotation Xrotation Yrotation
									JOINT LeftMiddleIntermediate
									{
										OFFSET 0.042007 0.000000 0.000000
										CHANNELS 6 Xposition Yposition Zposition Zrotation Xrotation Yrotation
										JOINT LeftMiddleDistal
										{
											OFFSET 0.025915 0.000000 0.000000
											CHANNELS 6 Xposition Yposition Zposition Zrotation Xrotation Yrotation
											End Site
											{
												OFFSET 0.025915 0.000000 0.000000
											}
										}
									}
								}
								JOINT LeftRingProximal
								{
									OFFSET 0.074383 0.008101 -0.015403
									CHANNELS 6 Xposition Yposition Zposition Zrotation Xrotation Yrotation
									JOINT LeftRingIntermediate
									{
										OFFSET 0.038967 0.000000 0.000000
										CHANNELS 6 Xposition Yposition Zposition Zrotation Xrotation Yrotation
										JOINT LeftRingDistal
										{
											OFFSET 0.022488 0.000000 0.000000
											CHANNELS 6 Xposition Yposition Zposition Zrotation Xrotation Yrotation
											End Site
											{
												OFFSET 0.022488 0.000000 0.000000
											}
										}
									}
								}
								JOINT LeftThumbProximal
								{
									OFFSET 0.003995 -0.010985 0.018096
									CHANNELS 6 Xposition Yposition Zposition Zrotation Xrotation Yrotation
									JOINT LeftThumbIntermediate
									{
										OFFSET 0.052819 -0.000008 -0.000074
										CHANNELS 6 Xposition Yposition Zposition Zrotation Xrotation Yrotation
										JOINT LeftThumbDistal
										{
											OFFSET 0.032489 0.000042 -0.000035
											CHANNELS 6 Xposition Yposition Zposition Zrotation Xrotation Yrotation
											End Site
											{
												OFFSET 0.032489 0.000042 -0.000035
											}
										}
									}
								}
							}
						}
					}
				}
				JOINT RightShoulder
				{
					OFFSET -0.025383 0.124268 0.007699
					CHANNELS 6 Xposition Yposition Zposition Zrotation Xrotation Yrotation
					JOINT RightUpperArm
					{
						OFFSET -0.136062 0.000000 0.000000
						CHANNELS 6 Xposition Yposition Zposition Zrotation Xrotation Yrotation
						JOINT RightLowerArm
						{
							OFFSET -0.225446 0.000000 0.000000
							CHANNELS 6 Xposition Yposition Zposition Zrotation Xrotation Yrotation
							JOINT RightHand
							{
								OFFSET -0.256325 0.000003 0.000015
								CHANNELS 6 Xposition Yposition Zposition Zrotation Xrotation Yrotation
								JOINT RightIndexProximal
								{
									OFFSET -0.074229 0.008101 0.022282
									CHANNELS 6 Xposition Yposition Zposition Zrotation Xrotation Yrotation
									JOINT RightIndexIntermediate
									{
										OFFSET -0.037712 0.000000 -0.000001
										CHANNELS 6 Xposition Yposition Zposition Zrotation Xrotation Yrotation
										JOINT RightIndexDistal
										{
											OFFSET -0.023218 0.000022 0.000021
											CHANNELS 6 Xposition Yposition Zposition Zrotation Xrotation Yrotation
											End Site
											{
												OFFSET -0.023218 0.000022 0.000021
											}
										}
									}
								}
								JOINT RightLittleProximal
								{
									OFFSET -0.069261 0.008101 -0.033073
									CHANNELS 6 Xposition Yposition Zposition Zrotation Xrotation Yrotation
									JOINT RightLittleIntermediate
									{
										OFFSET -0.035643 0.000000 0.000000
										CHANNELS 6 Xposition Yposition Zposition Zrotation Xrotation Yrotation
										JOINT RightLittleDistal
										{
											OFFSET -0.020542 0.000000 0.000000
											CHANNELS 6 Xposition Yposition Zposition Zrotation Xrotation Yrotation
											End Site
											{
												OFFSET -0.020542 0.000000 0.000000
											}
										}
									}
								}
								JOINT RightMiddleProximal
								{
									OFFSET -0.075240 0.008101 0.002320
									CHANNELS 6 Xposition Yposition Zposition Zrotation Xrotation Yrotation
									JOINT RightMiddleIntermediate
									{
										OFFSET -0.042007 0.000000 0.000000
										CHANNELS 6 Xposition Yposition Zposition Zrotation Xrotation Yrotation
										JOINT RightMiddleDistal
										{
											OFFSET -0.025915 0.000000 0.000000
											CHANNELS 6 Xposition Yposition Zposition Zrotation Xrotation Yrotation
											End Site
											{
												OFFSET -0.025915 0.000000 0.000000
											}
										}
									}
								}
								JOINT RightRingProximal
								{
									OFFSET -0.074383 0.008101 -0.015403
									CHANNELS 6 Xposition Yposition Zposition Zrotation Xrotation Yrotation
									JOINT RightRingIntermediate
									{
										OFFSET -0.038967 0.000000 0.000000
										CHANNELS 6 Xposition Yposition Zposition Zrotation Xrotation Yrotation
										JOINT RightRingDistal
										{
											OFFSET -0.022488 0.000000 0.000000
											CHANNELS 6 Xposition Yposition Zposition Zrotation Xrotation Yrotation
											End Site
											{
												OFFSET -0.022488 0.000000 0.000000
											}
										}
									}
								}
								JOINT RightThumbProximal
								{
									OFFSET -0.003995 -0.010985 0.018096
									CHANNELS 6 Xposition Yposition Zposition Zrotation Xrotation Yrotation
									JOINT RightThumbIntermediate
									{
										OFFSET -0.052819 -0.000008 -0.000074
										CHANNELS 6 Xposition Yposition Zposition Zrotation Xrotation Yrotation
										JOINT RightThumbDistal
										{
											OFFSET -0.032489 0.000042 -0.000035
											CHANNELS 6 Xposition Yposition Zposition Zrotation Xrotation Yrotation
											End Site
											{
												OFFSET -0.032489 0.000042 -0.000035
											}
										}
									}
								}
							}
						}
					}
				}
			}
		}
	}
	JOINT LeftUpperLeg
	{
		OFFSET 0.087143 -0.045243 0.001548
		CHANNELS 6 Xposition Yposition Zposition Zrotation Xrotation Yrotation
		JOINT LeftLowerLeg
		{
			OFFSET 0.000000 -0.394432 -0.000001
			CHANNELS 6 Xposition Yposition Zposition Zrotation Xrotation Yrotation
			JOINT LeftFoot
			{
				OFFSET 0.000000 -0.466446 0.003058
				CHANNELS 6 Xposition Yposition Zposition Zrotation Xrotation Yrotation
				JOINT LeftToes
				{
					OFFSET 0.000000 -0.079218 0.140851
					CHANNELS 6 Xposition Yposition Zposition Zrotation Xrotation Yrotation
					End Site
					{
						OFFSET 0.000000 -0.079218 0.140851
					}
				}
			}
		}
	}
	JOINT RightUpperLeg
	{
		OFFSET -0.087143 -0.045243 0.001548
		CHANNELS 6 Xposition Yposition Zposition Zrotation Xrotation Yrotation
		JOINT RightLowerLeg
		{
			OFFSET 0.000000 -0.394432 -0.000001
			CHANNELS 6 Xposition Yposition Zposition Zrotation Xrotation Yrotation
			JOINT RightFoot
			{
				OFFSET 0.000000 -0.466446 0.003058
				CHANNELS 6 Xposition Yposition Zposition Zrotation Xrotation Yrotation
				JOINT RightToes
				{
					OFFSET 0.000000 -0.079218 0.140851
					CHANNELS 6 Xposition Yposition Zposition Zrotation Xrotation Yrotation
					End Site
					{
						OFFSET 0.000000 -0.079218 0.140851
					}
				}
			}
		}
	}
}
MOTION
Frames: 4
Frame Time: 0.041667
-0.004327 1.030764 -0.002387 0.769268 12.447792 14.203513 0.000000 0.059888 0.006665 -3.967531 8.694258 8.289440 -0.000000 0.125681 -0.015911 -2.352739 2.166769 -0.514907 0.000000 0.122768 -0.001652 -0.000021 -12.397625 -0.000036 -0.000000 0.155865 0.008735 -0.204647 14.386059 0.170949 -0.000000 0.095969 -0.000410 2.758190 2.017529 -0.922665 0.015267 0.059218 0.021494 -1.701134 3.586993 21.747930 -0.015267 0.059218 0.021494 1.701130 3.587006 -21.747923 0.025383 0.124268 0.007699 16.504923 -3.285068 13.770263 0.136062 -0.000000 -0.000000 -91.392357 1.737776 19.437658 0.225446 -0.000000 -0.000000 -9.335427 17.946775 -25.669024 0.256325 0.000003 0.000015 10.730095 28.799103 -9.470276 0.074229 0.008101 0.022282 -0.012968 0.667619 1.112105 0.037712 0.000000 -0.000001 -1.679195 1.282860 0.674522 0.023218 0.000022 0.000021 -0.334985 1.286453 -0.711000 0.069261 0.008101 -0.033073 0.000005 -0.000042 0.000000 0.035643 -0.000000 0.000000 0.000003 0.000001 -0.000000 0.020542 0.000000 0.000000 0.890202 -0.008561 -1.101172 0.075240 0.008101 0.002320 0.000001 -0.000008 -0.000007 0.042007 -0.000000 -0.000000 0.000003 0.000038 -0.000014 0.025915 -0.000000 0.000000 0.000003 0.000039 -0.000013 0.074383 0.008101 -0.015403 0.000001 0.000015 0.000003 0.038967 0.000000 -0.000000 0.000003 -0.000000 -0.000000 0.022488 0.000000 -0.000000 -0.712572 -0.008157 1.310729 0.003995 -0.010985 0.018096 86.199487 49.487514 -89.646574 0.052819 -0.000008 -0.000074 -2.573033 -0.739914 0.463021 0.032489 0.000042 -0.000035 4.590288 -0.705069 -0.717109 -0.025383 0.124268 0.007699 10.102119 -3.273143 -13.506401 -0.136062 -0.000000 -0.000000 62.678877 24.390069 3.912484 -0.225446 -0.000000 -0.000000 9.186358 14.075810 22.581744 -0.256325 0.000003 0.000015 -1.754285 40.804838 5.119456 -0.074229 0.008101 0.022282 0.012969 0.667620 -1.112105 -0.037712 0.000000 -0.000001 1.679194 1.282861 -0.674522 -0.023218 0.000022 0.000021 0.334982 1.286454 0.710998 -0.069261 0.008101 -0.033073 -0.000003 -0.000042 -0.000000 -0.035643 -0.000000 0.000000 -0.000002 -0.000000 0.000001 -0.020542 -0.000000 -0.000000 -0.890203 -0.008562 1.101174 -0.075240 0.008101 0.002320 0.000001 -0.000007 0.000007 -0.042007 0.000000 -0.000000 -0.000004 0.000039 0.000014 -0.025915 -0.000000 -0.000000 -0.000003 0.000039 0.000014 -0.074383 0.008101 -0.015403 0.000001 0.000015 -0.000004 -0.038967 -0.000000 -0.000000 -0.000003 -0.000000 0.000000 -0.022488 0.000000 -0.000000 0.712573 -0.008158 -1.310727 -0.003995 -0.010985 0.018096 -86.199433 49.487517 89.646588 -0.052819 -0.000008 -0.000074 2.573042 -0.739910 -0.463021 -0.032489 0.000042 -0.000035 -4.590285 -0.705066 0.717110 0.087143 -0.045243 0.001548 0.296077 -18.759144 0.095195 -0.000000 -0.394432 -0.000001 -2.775841 38.501974 4.444932 0.000000 -0.466446 0.003058 2.518433 -14.519951 10.203474 -0.000000 -0.079218 0.140851 -0.000000 0.248288 -0.000003 -0.087143 -0.045243 0.001548 -10.457549 -10.970618 -2.011658 -0.000000 -0.394432 -0.000001 9.618913 20.034767 -18.548302 -0.000000 -0.466446 0.003058 7.365549 -17.982141 23.142867 -0.000000 -0.079218 0.140851 -0.000001 0.248283 -0.000000 
-0.003418 1.031683 -0.001631 0.179662 12.580314 15.086566 -0.000000 0.059888 0.006665 -4.165624 8.678466 8.601959 -0.000000 0.125681 -0.015911 -2.498355 2.202527 -0.566517 -0.000000 0.122768 -0.001652 -0.000022 -12.397622 -0.000038 0.000000 0.155865 0.008735 0.038700 14.853838 0.185777 0.000000 0.095969 -0.000410 2.991375 1.451923 -2.507278 0.015267 0.059218 0.021494 -1.701128 3.586995 21.747930 -0.015267 0.059218 0.021494 1.701134 3.587001 -21.747923 0.025383 0.124268 0.007699 16.557205 -3.465492 14.489372 0.136062 0.000000 -0.000000 -92.913549 4.420834 17.823739 0.225446 -0.000000 0.000000 -8.392851 13.666917 -26.026270 0.256325 0.000003 0.000015 9.245225 29.705217 -8.571121 0.074229 0.008101 0.022282 -0.012968 0.667619 1.112105 0.037712 0.000000 -0.000001 -1.679195 1.282862 0.674521 0.023218 0.000022 0.000021 -0.334984 1.286454 -0.710999 0.069261 0.008101 -0.033073 0.000003 -0.000044 0.000002 0.035643 -0.000000 0.000000 0.000003 0.000000 -0.000001 0.020542 0.000000 0.000000 0.890204 -0.008562 -1.101172 0.075240 0.008101 0.002320 -0.000002 -0.000008 -0.000005 0.042007 0.000000 0.000000 0.000004 0.000038 -0.000013 0.025915 0.000000 -0.000000 0.000003 0.000038 -0.000013 0.074383 0.008101 -0.015403 -0.000001 0.000013 0.000005 0.038967 0.000000 0.000000 0.000002 0.000000 0.000001 0.022488 0.000000 0.000000 -0.712572 -0.008158 1.310729 0.003995 -0.010985 0.018096 86.199487 49.487521 -89.646574 0.052819 -0.000008 -0.000074 -2.573037 -0.739914 0.463021 0.032489 0.000042 -0.000035 4.590288 -0.705068 -0.717110 -0.025383 0.124268 0.007699 9.818734 -3.458740 -14.199449 -0.136062 -0.000000 -0.000000 63.703767 24.100725 3.042873 -0.225446 -0.000000 -0.000000 9.141734 14.496095 23.418685 -0.256325 0.000003 0.000015 -2.694677 39.997376 4.094245 -0.074229 0.008101 0.022282 0.012967 0.667620 -1.112106 -0.037712 0.000000 -0.000001 1.679195 1.282861 -0.674523 -0.023218 0.000022 0.000021 0.334983 1.286454 0.710999 -0.069261 0.008101 -0.033073 -0.000006 -0.000043 -0.000001 -0.035643 -0.000000 -0.000000 -0.000003 0.000000 0.000001 -0.020542 -0.000000 -0.000000 -0.890203 -0.008562 1.101172 -0.075240 0.008101 0.002320 -0.000001 -0.000008 0.000006 -0.042007 -0.000000 -0.000000 -0.000003 0.000039 0.000014 -0.025915 -0.000000 -0.000000 -0.000002 0.000039 0.000014 -0.074383 0.008101 -0.015403 -0.000002 0.000014 -0.000004 -0.038967 0.000000 -0.000000 -0.000002 0.000000 -0.000000 -0.022488 -0.000000 -0.000000 0.712572 -0.008158 -1.310729 -0.003995 -0.010985 0.018096 -86.199433 49.487521 89.646581 -0.052819 -0.000008 -0.000074 2.573040 -0.739911 -0.463021 -0.032489 0.000042 -0.000035 -4.590284 -0.705066 0.717111 0.087143 -0.045243 0.001548 0.143089 -17.899120 0.043949 -0.000000 -0.394432 -0.000001 -0.925304 36.325678 1.553430 0.000000 -0.466446 0.003058 2.862133 -14.171336 11.841192 -0.000000 -0.079218 0.140851 -0.000000 0.248287 0.000000 -0.087143 -0.045243 0.001548 -9.846292 -10.599102 -1.828472 0.000000 -0.394432 -0.000001 9.566311 19.692614 -17.391559 -0.000000 -0.466446 0.003058 7.004091 -18.778936 21.266100 -0.000000 -0.079218 0.140851 0.000000 0.248283 -0.000002 
-0.001431 1.031862 0.000512 -0.619106 12.711982 16.396258 -0.000000 0.059888 0.006665 -4.434763 8.648609 9.251925 -0.000000 0.125681 -0.015911 -2.653549 2.253701 -0.600892 0.000000 0.122768 -0.001652 -0.000020 -12.397625 -0.000032 0.000000 0.155865 0.008735 0.325500 15.122049 0.184489 -0.000000 0.095969 -0.000410 3.446067 1.303041 -4.072850 0.015267 0.059218 0.021494 -1.701130 3.586989 21.747930 -0.015267 0.059218 0.021494 1.701131 3.586998 -21.747922 0.025383 0.124268 0.007699 15.997001 -3.597963 15.027232 0.136062 -0.000000 -0.000000 -93.769379 7.834644 15.668329 0.225446 0.000000 -0.000000 -7.610721 7.989608 -26.966705 0.256325 0.000003 0.000015 7.327972 31.474809 -7.498486 0.074229 0.008101 0.022282 -0.012968 0.667619 1.112106 0.037712 0.000000 -0.000001 -1.679194 1.282861 0.674522 0.023218 0.000022 0.000021 -0.334986 1.286454 -0.711000 0.069261 0.008101 -0.033073 0.000005 -0.000042 0.000001 0.035643 -0.000000 0.000000 0.000003 -0.000000 0.000001 0.020542 -0.000000 0.000000 0.890203 -0.008562 -1.101171 0.075240 0.008101 0.002320 -0.000000 -0.000007 -0.000006 0.042007 -0.000000 0.000000 0.000003 0.000039 -0.000012 0.025915 -0.000000 0.000000 0.000003 0.000039 -0.000014 0.074383 0.008101 -0.015403 -0.000001 0.000014 0.000004 0.038967 0.000000 0.000000 0.000002 0.000000 0.000001 0.022488 0.000000 -0.000000 -0.712574 -0.008158 1.310731 0.003995 -0.010985 0.018096 86.199494 49.487517 -89.646574 0.052819 -0.000008 -0.000074 -2.573040 -0.739914 0.463022 0.032489 0.000042 -0.000035 4.590285 -0.705068 -0.717110 -0.025383 0.124268 0.007699 9.112216 -3.594860 -14.761651 -0.136062 -0.000000 -0.000000 65.014863 22.915587 1.345122 -0.225446 0.000000 -0.000000 9.527914 15.009511 24.561400 -0.256325 0.000003 0.000015 -4.000329 39.286063 2.875633 -0.074229 0.008101 0.022282 0.012967 0.667620 -1.112105 -0.037712 0.000000 -0.000001 1.679195 1.282861 -0.674522 -0.023218 0.000022 0.000021 0.334983 1.286453 0.710999 -0.069261 0.008101 -0.033073 -0.000006 -0.000043 -0.000000 -0.035643 0.000000 -0.000000 -0.000001 -0.000000 0.000000 -0.020542 -0.000000 0.000000 -0.890204 -0.008562 1.101172 -0.075240 0.008101 0.002320 0.000000 -0.000008 0.000007 -0.042007 0.000000 -0.000000 -0.000003 0.000039 0.000013 -0.025915 -0.000000 0.000000 -0.000002 0.000039 0.000013 -0.074383 0.008101 -0.015403 0.000000 0.000014 -0.000004 -0.038967 0.000000 -0.000000 -0.000003 -0.000000 0.000001 -0.022488 0.000000 -0.000000 0.712570 -0.008158 -1.310728 -0.003995 -0.010985 0.018096 -86.199433 49.487517 89.646581 -0.052819 -0.000008 -0.000074 2.573038 -0.739910 -0.463020 -0.032489 0.000042 -0.000035 -4.590282 -0.705066 0.717109 0.087143 -0.045243 0.001548 0.299254 -16.834232 0.086640 0.000000 -0.394432 -0.000001 0.752077 34.313159 -1.322178 0.000000 -0.466446 0.003058 3.102819 -13.695392 13.240554 0.000000 -0.079218 0.140851 -0.000002 0.248280 -0.000001 -0.087143 -0.045243 0.001548 -9.272685 -10.376213 -1.684323 0.000000 -0.394432 -0.000001 9.807557 19.935348 -19.048832 -0.000000 -0.466446 0.003058 7.421771 -19.212094 21.974824 -0.000000 -0.079218 0.140851 0.000000 0.248285 -0.000000 
0.001514 1.032403 0.002734 -1.569148 12.501185 17.839797 -0.000000 0.059888 0.006665 -4.683396 8.797120 9.979118 -0.000000 0.125681 -0.015911 -2.749568 2.474615 -0.584027 -0.000000 0.122768 -0.001652 -0.000022 -12.397627 -0.000041 -0.000000 0.155865 0.008735 0.569860 15.026963 0.151525 0.000000 0.095969 -0.000410 4.289622 1.293796 -5.039767 0.015267 0.059218 0.021494 -1.701135 3.586993 21.747934 -0.015267 0.059218 0.021494 1.701132 3.587004 -21.747922 0.025383 0.124268 0.007699 14.580907 -3.726779 15.225175 0.136062 0.000000 0.000000 -93.375789 11.460117 13.186225 0.225446 -0.000000 -0.000000 -7.441717 1.741723 -28.546663 0.256325 0.000003 0.000015 5.580460 33.660101 -6.284241 0.074229 0.008101 0.022282 -0.012968 0.667619 1.112103 0.037712 0.000000 -0.000001 -1.679195 1.282861 0.674520 0.023218 0.000022 0.000021 -0.334984 1.286454 -0.710999 0.069261 0.008101 -0.033073 0.000004 -0.000043 0.000000 0.035643 -0.000000 -0.000000 0.000004 -0.000000 -0.000001 0.020542 -0.000000 -0.000000 0.890203 -0.008562 -1.101171 0.075240 0.008101 0.002320 -0.000002 -0.000009 -0.000007 0.042007 -0.000000 -0.000000 0.000003 0.000038 -0.000014 0.025915 -0.000000 0.000000 0.000003 0.000039 -0.000014 0.074383 0.008101 -0.015403 -0.000002 0.000013 0.000003 0.038967 0.000000 -0.000000 0.000002 0.000000 0.000000 0.022488 -0.000000 -0.000000 -0.712574 -0.008158 1.310729 0.003995 -0.010985 0.018096 86.199487 49.487521 -89.646574 0.052819 -0.000008 -0.000074 -2.573034 -0.739914 0.463022 0.032489 0.000042 -0.000035 4.590288 -0.705067 -0.717109 -0.025383 0.124268 0.007699 7.799284 -3.725314 -15.007363 -0.136062 0.000000 -0.000000 66.466449 21.074062 -0.823909 -0.225446 -0.000000 -0.000000 10.272943 15.970500 26.005126 -0.256325 0.000003 0.000015 -6.049283 38.349023 1.804713 -0.074229 0.008101 0.022282 0.012969 0.667619 -1.112105 -0.037712 -0.000000 -0.000001 1.679196 1.282861 -0.674522 -0.023218 0.000022 0.000021 0.334984 1.286453 0.710999 -0.069261 0.008101 -0.033073 -0.000005 -0.000043 -0.000001 -0.035643 -0.000000 -0.000000 -0.000003 -0.000000 0.000001 -0.020542 0.000000 0.000000 -0.890203 -0.008562 1.101172 -0.075240 0.008101 0.002320 0.000001 -0.000008 0.000006 -0.042007 -0.000000 -0.000000 -0.000003 0.000039 0.000013 -0.025915 -0.000000 0.000000 -0.000003 0.000039 0.000013 -0.074383 0.008101 -0.015403 0.000001 0.000014 -0.000004 -0.038967 0.000000 -0.000000 -0.000003 -0.000000 0.000000 -0.022488 0.000000 -0.000000 0.712572 -0.008158 -1.310730 -0.003995 -0.010985 0.018096 -86.199433 49.487514 89.646581 -0.052819 -0.000008 -0.000074 2.573043 -0.739910 -0.463022 -0.032489 0.000042 -0.000035 -4.590277 -0.705065 0.717111 0.087143 -0.045243 0.001548 0.989181 -15.619458 0.266333 -0.000000 -0.394432 -0.000001 1.698919 32.377323 -3.125202 -0.000000 -0.466446 0.003058 3.298080 -13.707579 14.031444 -0.000000 -0.079218 0.140851 0.000001 0.248287 -0.000000 -0.087143 -0.045243 0.001548 -8.707893 -10.356117 -1.577111 0.000000 -0.394432 -0.000001 10.404091 20.779604 -22.201873 -0.000000 -0.466446 0.003058 8.075136 -19.277260 23.655650 -0.000000 -0.079218 0.140851 -0.000000 0.248283 0.000003 
